<?xml version="1.0" encoding="UTF-8"?>
<svg version="1.1" xmlns="http://www.w3.org/2000/svg" width="160" height="157">
<path d="M0 0 C52.8 0 105.6 0 160 0 C160 51.81 160 103.62 160 157 C107.2 157 54.4 157 0 157 C0 105.19 0 53.38 0 0 Z " fill="#FDFCFC" transform="translate(0,0)"/>
<path d="M0 0 C0.99 0.495 0.99 0.495 2 1 C0.53240234 1.96099609 0.53240234 1.96099609 -0.96484375 2.94140625 C-22.87051517 16.66743081 -22.87051517 16.66743081 -34.578125 38.76171875 C-34.97873751 41.83679074 -35.14493214 44.86431354 -35.23876953 47.96240234 C-35.74033464 62.67387176 -40.02630877 75.59151949 -50.875 86.0625 C-57.55256703 91.66792712 -65.42084409 95.75358429 -73 100 C-72.34 100 -71.68 100 -71 100 C-73.08915049 110.95181995 -75.61470725 119.6911041 -82 129 C-83.51553092 125.02549507 -82.49888623 121.79518851 -81.5625 117.75 C-81.27503906 116.48671875 -80.98757812 115.2234375 -80.69140625 113.921875 C-80.46324219 112.95765625 -80.23507813 111.9934375 -80 111 C-80.56847656 112.134375 -81.13695312 113.26875 -81.72265625 114.4375 C-89.63959967 129.96682284 -89.63959967 129.96682284 -96 136 C-97 134 -97 134 -96.37915039 131.93701172 C-95.86856079 130.69588623 -95.86856079 130.69588623 -95.34765625 129.4296875 C-94.98349609 128.53378906 -94.61933594 127.63789063 -94.24414062 126.71484375 C-93.85419922 125.77769531 -93.46425781 124.84054688 -93.0625 123.875 C-92.67642578 122.93011719 -92.29035156 121.98523438 -91.89257812 121.01171875 C-90.93524154 118.67156265 -89.97080009 116.33459572 -89 114 C-92.97670724 117.59797321 -95.77608905 121.83206405 -98.75 126.25 C-99.25660156 126.99507813 -99.76320312 127.74015625 -100.28515625 128.5078125 C-101.52734756 130.33594311 -102.76547582 132.166687 -104 134 C-105.2776229 130.1671313 -104.47715023 129.02439782 -102.97265625 125.328125 C-102.51415283 124.19568359 -102.05564941 123.06324219 -101.58325195 121.89648438 C-101.08140381 120.69314453 -100.57955566 119.48980469 -100.0625 118.25 C-99.8097934 117.63874268 -99.55708679 117.02748535 -99.29672241 116.39770508 C-93.54303309 102.49948543 -87.26648798 89.93753773 -78 78 C-76.99819179 76.66802474 -75.99754281 75.33517269 -75 74 C-75.825 74.165 -76.65 74.33 -77.5 74.5 C-85.22307946 75.60329707 -91.76733087 75.07353191 -99 72 C-99.33 71.34 -99.66 70.68 -100 70 C-95.545 69.01 -95.545 69.01 -91 68 C-91.83402344 67.85304688 -92.66804688 67.70609375 -93.52734375 67.5546875 C-101.07930446 66.04948571 -107.12440881 64.11975058 -113 59 C-113.33 58.34 -113.66 57.68 -114 57 C-106.41 57 -98.82 57 -91 57 C-92.93875 56.7525 -94.8775 56.505 -96.875 56.25 C-108.76156381 54.36774586 -116.99599595 50.27433898 -124.75390625 40.875 C-126 39 -126 39 -126 37 C-125.4743042 37.18175781 -124.9486084 37.36351562 -124.40698242 37.55078125 C-118.42955694 39.58431821 -112.40539066 41.34763629 -106.3125 43 C-104.87753174 43.39082764 -104.87753174 43.39082764 -103.41357422 43.78955078 C-95.98677992 45.78777459 -88.54414814 47.50104885 -81 49 C-81.67466309 48.8141333 -82.34932617 48.6282666 -83.04443359 48.43676758 C-86.15766339 47.57257334 -89.26624399 46.69264604 -92.375 45.8125 C-93.43589844 45.52052734 -94.49679688 45.22855469 -95.58984375 44.92773438 C-109.76710949 40.88329967 -119.71874609 35.58146709 -127.48828125 22.8359375 C-129.54679911 18.97422183 -130.82656452 15.21056259 -132 11 C-128.56943713 12.61726535 -125.44672593 14.58850709 -122.25 16.625 C-117.50366181 19.55790967 -112.7332511 22.24511265 -107.73046875 24.7109375 C-107.04738144 25.0502832 -106.36429413 25.38962891 -105.6605072 25.73925781 C-100.35407647 28.36273402 -95.0108721 30.90589933 -89.66015625 33.4375 C-87.26616686 34.57575674 -84.8725901 35.71487501 -82.47924805 36.85449219 C-80.85784196 37.62301803 -79.234101 38.38663564 -77.6081543 39.14550781 C-66.72326728 44.23432015 -57.21280757 49.00985491 -50 59 C-50.91061716 57.57943722 -51.82879989 56.16372295 -52.75 54.75 C-53.26046875 53.96109375 -53.7709375 53.1721875 -54.296875 52.359375 C-55.9174447 49.92362943 -55.9174447 49.92362943 -58.203125 48.09375 C-60 46 -60 46 -60.3125 43.046875 C-59.51251381 34.60702074 -58.51180324 27.79059668 -51.875 22.0625 C-47.70065337 19.06786003 -45.78023942 18.95007353 -40.6796875 18.86328125 C-32.51597274 18.3266061 -26.9910399 15.42553331 -20.125 11.1875 C-18.00336281 9.92970902 -15.88098368 8.67316859 -13.7578125 7.41796875 C-12.77200195 6.82806152 -11.78619141 6.2381543 -10.77050781 5.63037109 C-7.23811403 3.55165011 -3.75025415 1.65759493 0 0 Z " fill="#FC6D09" transform="translate(141,12)"/>
<path d="M0 0 C1.66127363 3.32254726 -0.05577581 6.59980813 -1.0625 10 C-1.28639404 10.76368896 -1.51028809 11.52737793 -1.7409668 12.31420898 C-3.63747371 18.45753907 -6.24883689 23.75352788 -10 29 C-11.37652616 25.22831833 -10.60432755 22.51047129 -9.625 18.6875 C-8.73148903 15.09735682 -7.86827331 11.62023313 -7.5 7.9375 C-6.95488854 4.73497017 -6.33189408 3.24552763 -4 1 C-1.8125 0.25 -1.8125 0.25 0 0 Z " fill="#FB7217" transform="translate(69,112)"/>
<path d="M0 0 C3.3 0 6.6 0 10 0 C10 4.29 10 8.58 10 13 C8.26934803 10.69246404 6.57716882 8.35253975 5 5.9375 C3.02085628 2.83431566 3.02085628 2.83431566 0 0 Z " fill="#F6F6F6" transform="translate(150,0)"/>
<path d="M0 0 C11.88 1.485 11.88 1.485 24 3 C24 3.33 24 3.66 24 4 C15.09 4 6.18 4 -3 4 C-2.01 3.34 -1.02 2.68 0 2 C0 1.34 0 0.68 0 0 Z " fill="#FDD9BF" transform="translate(35,66)"/>
<path d="M0 0 C0.66 0.33 1.32 0.66 2 1 C-0.45740296 2.64723726 -2.91587001 4.29284464 -5.375 5.9375 C-6.07367188 6.40607422 -6.77234375 6.87464844 -7.4921875 7.35742188 C-8.1625 7.80537109 -8.8328125 8.25332031 -9.5234375 8.71484375 C-10.14138184 9.12855225 -10.75932617 9.54226074 -11.39599609 9.96850586 C-13 11 -13 11 -15 12 C-15 11.34 -15 10.68 -15 10 C-15.66 9.67 -16.32 9.34 -17 9 C-14.21526125 7.46621464 -11.42121662 5.9502442 -8.625 4.4375 C-7.8309375 3.99986328 -7.036875 3.56222656 -6.21875 3.11132812 C-5.45820313 2.70205078 -4.69765625 2.29277344 -3.9140625 1.87109375 C-2.8614624 1.29766235 -2.8614624 1.29766235 -1.78759766 0.71264648 C-1.19769043 0.47747314 -0.6077832 0.2422998 0 0 Z " fill="#FC7E2A" transform="translate(141,12)"/>
<path d="M0 0 C1.43931117 0.45261358 2.87638999 0.91232979 4.3125 1.375 C5.11300781 1.63023438 5.91351563 1.88546875 6.73828125 2.1484375 C9 3 9 3 12 5 C11.38125 5.28875 10.7625 5.5775 10.125 5.875 C7.86674235 6.93720042 7.86674235 6.93720042 6 9 C4.99406757 7.8803014 3.9954151 6.7540588 3 5.625 C2.443125 4.99851562 1.88625 4.37203125 1.3125 3.7265625 C0 2 0 2 0 0 Z " fill="#FD7B23" transform="translate(15,49)"/>
<path d="M0 0 C1.26977059 3.80931176 0.52074507 5.81618993 -0.4375 9.6875 C-0.72496094 10.86699219 -1.01242188 12.04648438 -1.30859375 13.26171875 C-1.53675781 14.16535156 -1.76492187 15.06898438 -2 16 C-3.32 15.34 -4.64 14.68 -6 14 C-4.50829734 9.0276578 -2.39542583 4.58154261 0 0 Z " fill="#FDDEC6" transform="translate(61,121)"/>
<path d="M0 0 C4.97116744 3.8121593 8.39531377 7.24798457 11 13 C10.67 13.99 10.34 14.98 10 16 C9.63648437 15.40832031 9.27296875 14.81664063 8.8984375 14.20703125 C5.72424755 9.21785577 2.76108581 5.51413477 -2 2 C-1.34 1.34 -0.68 0.68 0 0 Z " fill="#FDDFCC" transform="translate(81,58)"/>
<path d="M0 0 C0.33 0.66 0.66 1.32 1 2 C1.99 2.33 2.98 2.66 4 3 C1.69 6.3 -0.62 9.6 -3 13 C-4.23593891 9.29218328 -3.5678132 8.32489747 -2.0625 4.8125 C-1.68222656 3.91144531 -1.30195312 3.01039063 -0.91015625 2.08203125 C-0.60980469 1.39496094 -0.30945312 0.70789063 0 0 Z " fill="#FC8233" transform="translate(40,133)"/>
<path d="M0 0 C1 2 1 2 0.22265625 4.3828125 C-0.16019531 5.28773438 -0.54304688 6.19265625 -0.9375 7.125 C-1.31777344 8.03507813 -1.69804688 8.94515625 -2.08984375 9.8828125 C-2.54037109 10.93082031 -2.54037109 10.93082031 -3 12 C-3.66 11.34 -4.32 10.68 -5 10 C-5.99 10 -6.98 10 -8 10 C-5.36 6.7 -2.72 3.4 0 0 Z " fill="#FDE5D2" transform="translate(52,124)"/>
<path d="M0 0 C6.51791392 -0.3540919 11.17521449 -0.03901852 17 3 C17 3.33 17 3.66 17 4 C10.83381819 4.40214229 5.82254243 2.96818336 0 1 C0 0.67 0 0.34 0 0 Z " fill="#FDDFCB" transform="translate(24,52)"/>
<path d="M0 0 C0.33 0 0.66 0 1 0 C1 2.97 1 5.94 1 9 C-0.65 9 -2.3 9 -4 9 C-2.80100302 5.9168649 -1.52299523 2.93720508 0 0 Z " fill="#EAEAEA" transform="translate(159,148)"/>
<path d="M0 0 C2.88437779 1.29299694 4.87219421 2.65941363 7 5 C5.35 5.66 3.7 6.32 2 7 C1.34 4.69 0.68 2.38 0 0 Z " fill="#FD8433" transform="translate(9,23)"/>
<path d="M0 0 C1.98 0.495 1.98 0.495 4 1 C3.67 2.32 3.34 3.64 3 5 C1.68 4.67 0.36 4.34 -1 4 C-0.67 2.68 -0.34 1.36 0 0 Z " fill="#FDDDC6" transform="translate(96,36)"/>
<path d="M0 0 C0.66 0.33 1.32 0.66 2 1 C-2.95 3.97 -2.95 3.97 -8 7 C-8.66 6.34 -9.32 5.68 -10 5 C-8.38007835 4.13624104 -6.75388139 3.28424146 -5.125 2.4375 C-4.22007812 1.96183594 -3.31515625 1.48617188 -2.3828125 0.99609375 C-1.20332031 0.50302734 -1.20332031 0.50302734 0 0 Z " fill="#FD9B5C" transform="translate(141,12)"/>
<path d="M0 0 C1.32 0.66 2.64 1.32 4 2 C1.03 4.475 1.03 4.475 -2 7 C-1.34 4.69 -0.68 2.38 0 0 Z " fill="#FC7A24" transform="translate(46,141)"/>
<path d="M0 0 C0.33 0 0.66 0 1 0 C1.08121924 1.60332791 1.13929134 3.20784026 1.1875 4.8125 C1.23970703 6.15248047 1.23970703 6.15248047 1.29296875 7.51953125 C0.95081002 10.41647515 0.24606427 11.22555028 -2 13 C-1.85769192 11.58297487 -1.71099254 10.1663904 -1.5625 8.75 C-1.48128906 7.96109375 -1.40007813 7.1721875 -1.31640625 6.359375 C-1.02365007 4.17635361 -0.57935581 2.1226818 0 0 Z " fill="#FC8330" transform="translate(60,128)"/>
</svg>
